<svg xmlns="http://www.w3.org/2000/svg" xmlns:xlink="http://www.w3.org/1999/xlink" viewBox="0 0 113 82">
  <defs>
    <style>
      .cls-1 {
        clip-path: url(#clip-Custom_Size_1);
      }

      .cls-2 {
        fill: #edf2fd;
      }
    </style>
    <clipPath id="clip-Custom_Size_1">
      <rect width="113" height="82"/>
    </clipPath>
  </defs>
  <g id="Custom_Size_1" data-name="Custom Size – 1" class="cls-1">
    <g id="pencil" transform="translate(21.001 6)">
      <g id="Pencil-2" data-name="Pencil" transform="translate(-0.001)">
        <g id="Group_82" data-name="Group 82">
          <path id="Path_66" data-name="Path 66" class="cls-2" d="M67.577,3.843a13.113,13.113,0,0,0-18.546,0L9.585,43.057a2.212,2.212,0,0,0-.525.819L.133,68.428a2.232,2.232,0,0,0,2.1,3,2.2,2.2,0,0,0,.654-.1l22.206-6.812a2.23,2.23,0,0,0,.924-.554L67.579,22.4a13.11,13.11,0,0,0,0-18.555ZM22.526,60.632l-8.312,2.553a9.536,9.536,0,0,0-2.268-3.71A12.062,12.062,0,0,0,8.92,57.331l3.8-10.459h5.134v4.464a2.23,2.23,0,0,0,2.232,2.232h3.939ZM55.381,28.282,28.187,55.476l.781-3.676a2.236,2.236,0,0,0-2.183-2.7H22.321V44.64a2.233,2.233,0,0,0-2.232-2.232H16.567L43.112,16.015l.027.025A8.657,8.657,0,1,1,55.381,28.282Zm9.04-9.04-2.08,2.082A13.059,13.059,0,0,0,50.087,9.082L52.181,7l0,0A8.654,8.654,0,1,1,64.421,19.242ZM49.759,18.51,27.439,40.83A2.232,2.232,0,1,0,30.6,43.986l22.32-22.32a2.232,2.232,0,0,0-3.156-3.156Z" transform="translate(0.001)"/>
        </g>
      </g>
    </g>
  </g>
</svg>
