<svg xmlns="http://www.w3.org/2000/svg" xmlns:xlink="http://www.w3.org/1999/xlink" viewBox="0 0 113 82">
  <defs>
    <style>
      .cls-1 {
        clip-path: url(#clip-Custom_Size_1);
      }

      .cls-2 {
        fill: #333d5d;
      }
    </style>
    <clipPath id="clip-Custom_Size_1">
      <rect width="113" height="82"/>
    </clipPath>
  </defs>
  <g id="Custom_Size_1" data-name="Custom Size – 1" class="cls-1">
    <g id="cloud-storage-uploading-option" transform="translate(12 -64.091)">
      <path id="Path_68" data-name="Path 68" class="cls-2" d="M84.772,109.349a17.471,17.471,0,0,0-9.856-6.254,11.8,11.8,0,0,0-9.924-18.187,11.282,11.282,0,0,0-7.662,2.862,23.66,23.66,0,0,0-21.88-14.679,22.771,22.771,0,0,0-16.71,6.925,22.766,22.766,0,0,0-6.924,16.71q0,.6.092,1.985A20.643,20.643,0,0,0,0,117.405a19.916,19.916,0,0,0,6.07,14.609,19.912,19.912,0,0,0,14.61,6.071H70.9a17.705,17.705,0,0,0,13.869-28.736ZM58.646,108.1a1.422,1.422,0,0,1-1.038.438H47.268V124.79a1.5,1.5,0,0,1-1.476,1.476H36.927a1.5,1.5,0,0,1-1.477-1.476V108.541H25.11a1.42,1.42,0,0,1-1.476-1.476,1.735,1.735,0,0,1,.461-1.108l16.2-16.2a1.564,1.564,0,0,1,2.123,0L58.67,106a1.436,1.436,0,0,1,.414,1.062A1.42,1.42,0,0,1,58.646,108.1Z" transform="translate(0)"/>
    </g>
  </g>
</svg>
